<?xml version="1.0" encoding="UTF-8"?>
<svg width="281px" height="280px" viewBox="0 0 281 280" version="1.1" xmlns="http://www.w3.org/2000/svg" xmlns:xlink="http://www.w3.org/1999/xlink">
    <title>offer dot</title>
    <g id="Beauty-Don't-Stop" stroke="none" stroke-width="1" fill="none" fill-rule="evenodd">
        <g id="Landing-Page---desktop---WK44" transform="translate(-682.000000, -240.000000)">
            <g id="lp-/-desktop-/-wk-1" transform="translate(0.000000, 190.000000)">
                <g id="images-/-desktop-/-wk-1" transform="translate(344.000000, 0.000000)">
                    <g id="Group-74" transform="translate(338.500000, 50.000000)">
                        <path d="M279.795922,139.898392 C279.795922,217.162055 217.161238,279.795831 139.897575,279.795831 C62.6339125,279.795831 -0.000317666125,217.162055 -0.000317666125,139.898392 C-0.000317666125,62.6347293 62.6339125,4.53808753e-05 139.897575,4.53808753e-05 C217.161238,4.53808753e-05 279.795922,62.6347293 279.795922,139.898392" id="Fill-1" fill="#EF4272"></path>
                        <polygon id="Fill-4" fill="#FFFFFF" points="54.1470535 65.0693679 54.1470535 48.4136791 57.337329 48.4136791 57.337329 55.1699838 64.9145737 55.1699838 64.9145737 48.4136791 68.1048493 48.4136791 68.1048493 65.0693679 64.9145737 65.0693679 64.9145737 57.9377634 57.337329 57.9377634 57.337329 65.0693679"></polygon>
                        <path d="M76.4559287,62.887637 C77.3158963,62.887637 78.0587812,62.5708784 78.6845835,61.9378152 C79.3099319,61.3042982 79.62306,60.3231637 79.62306,58.9935041 C79.62306,57.6488687 79.3099319,56.6636499 78.6845835,56.0378476 C78.0587812,55.4124992 77.3158963,55.0993712 76.4559287,55.0993712 C75.5955073,55.0993712 74.8526224,55.4124992 74.2272739,56.0378476 C73.6019254,56.6636499 73.2887974,57.6488687 73.2887974,58.9935041 C73.2887974,60.3231637 73.6019254,61.3042982 74.2272739,61.9378152 C74.8526224,62.5708784 75.5955073,62.887637 76.4559287,62.887637 M76.4559287,65.4684473 C75.2674036,65.4684473 74.2036759,65.2102301 73.2656532,64.6937958 C72.3271767,64.1778152 71.5879222,63.4353841 71.0487974,62.4655948 C70.5092188,61.4958055 70.2396564,60.3385932 70.2396564,58.9935041 C70.2396564,57.6488687 70.5092188,56.4916564 71.0487974,55.5218671 C71.5879222,54.5520778 72.3271767,53.8091929 73.2656532,53.2932123 C74.2036759,52.7772318 75.2674036,52.5190146 76.4559287,52.5190146 C77.6444538,52.5190146 78.7081815,52.7772318 79.6462042,53.2932123 C80.5846807,53.8091929 81.3239352,54.5520778 81.86306,55.5218671 C82.4026386,56.4916564 82.672201,57.6488687 82.672201,58.9935041 C82.672201,60.3385932 82.4026386,61.4958055 81.86306,62.4655948 C81.3239352,63.4353841 80.5846807,64.1778152 79.6462042,64.6937958 C78.7081815,65.2102301 77.6444538,65.4684473 76.4559287,65.4684473" id="Fill-6" fill="#FFFFFF"></path>
                        <path d="M88.6307553,65.0693679 C87.5515981,65.0693679 86.6916305,64.7957212 86.0499449,64.2484279 C85.4087131,63.7011345 85.0883241,62.8098541 85.0883241,61.5741329 L85.0883241,55.3810049 L83.2821653,55.3810049 L83.2821653,52.917731 L83.9624246,52.917731 C84.5251475,52.917731 84.9045316,52.808363 85.1001232,52.5896272 C85.2952609,52.3704376 85.3932836,51.987423 85.3932836,51.4396759 L85.3932836,49.633517 L88.0911767,49.633517 L88.0911767,52.917731 L90.8126677,52.917731 L90.8126677,55.3810049 L88.0911767,55.3810049 L88.0911767,60.9174716 C88.0911767,61.5428201 88.2395721,61.9612318 88.5368169,62.1722528 C88.8336078,62.3832739 89.2406742,62.4890113 89.7566548,62.4890113 L90.8126677,62.4890113 L90.8126677,65.0693679 L88.6307553,65.0693679 Z" id="Fill-8" fill="#FFFFFF"></path>
                        <path d="M103.103896,51.1819125 L100.429601,51.1819125 L100.429601,62.3011345 L103.103896,62.3011345 C104.073686,62.3011345 104.957251,62.098282 105.755047,61.6912156 C106.552389,61.2850567 107.185906,60.6669692 107.65469,59.8383144 C108.124382,59.0096596 108.358548,57.9772447 108.358548,56.7415235 C108.358548,55.5062561 108.124382,54.4779254 107.65469,53.6569854 C107.185906,52.8355916 106.556019,52.2179579 105.766392,51.8036305 C104.976765,51.3893031 104.089115,51.1819125 103.103896,51.1819125 L103.103896,51.1819125 Z M97.2629238,65.0693679 L97.2629238,48.4136791 L103.127494,48.4136791 C104.284707,48.4136791 105.371125,48.5897569 106.38811,48.9414587 C107.404642,49.2931605 108.303637,49.82094 109.086003,50.5247974 C109.867462,51.2286548 110.481919,52.1008752 110.927105,53.1405511 C111.373199,54.1806807 111.596019,55.3810049 111.596019,56.7415235 C111.596019,58.1179254 111.373199,59.3259643 110.927105,60.366094 C110.481919,61.4062237 109.867462,62.273906 109.086003,62.9700486 C108.303637,63.6657374 107.404642,64.1898865 106.38811,64.5415883 C105.371125,64.8932901 104.292421,65.0693679 103.151092,65.0693679 L97.2629238,65.0693679 Z" id="Fill-10" fill="#FFFFFF"></path>
                        <path d="M118.938464,55.0995527 C118.156097,55.0995527 117.479922,55.3341718 116.909485,55.80341 C116.338593,56.2721945 115.982807,56.9374781 115.842126,57.7969919 L121.894574,57.7969919 C121.784752,56.9215948 121.463909,56.2531345 120.932953,55.791611 C120.401089,55.3305413 119.736259,55.0995527 118.938464,55.0995527 M119.032402,65.468175 C117.843877,65.468175 116.780149,65.2063274 115.842126,64.6821783 C114.90365,64.158483 114.160765,63.403799 113.613472,62.4185802 C113.066178,61.4333614 112.792532,60.2602658 112.792532,58.8997472 C112.792532,57.5551118 113.081608,56.4096985 113.660214,55.4630535 C114.23882,54.5168622 114.997135,53.7898606 115.936065,53.2815948 C116.874088,52.773329 117.882904,52.5187423 118.962062,52.5187423 C120.150587,52.5187423 121.194347,52.7692447 122.093796,53.2697958 C122.993245,53.7703468 123.696648,54.481919 124.204914,55.4045122 C124.71318,56.3275592 124.967313,57.4298606 124.967313,58.7118703 C124.967313,58.9156305 124.963229,59.1307358 124.955968,59.3571864 C124.947799,59.5840908 124.936,59.7601686 124.920571,59.884966 L115.842126,59.884966 C115.951494,60.8701848 116.299566,61.617154 116.88634,62.1254198 C117.472661,62.6336856 118.187864,62.8878185 119.032402,62.8878185 C119.65775,62.8878185 120.197329,62.782081 120.650684,62.57106 C121.104493,62.3600389 121.456648,61.9180292 121.706697,61.2454846 L124.803488,61.2454846 C124.583844,62.2307034 124.177686,63.0325835 123.583196,63.6502172 C122.98916,64.2683047 122.293472,64.7252901 121.495676,65.0225348 C120.69788,65.3193258 119.87694,65.468175 119.032402,65.468175" id="Fill-12" fill="#FFFFFF"></path>
                        <path d="M128.908052,61.3863922 C128.908052,61.840201 129.075961,62.2037018 129.412233,62.4773485 C129.748959,62.7509951 130.229543,62.8875916 130.855345,62.8875916 C131.731196,62.8875916 132.446399,62.6375429 133.001861,62.1369919 C133.556415,61.6368947 133.834146,60.9489206 133.834146,60.0726159 L133.834146,59.3923566 L130.925686,59.7676564 C129.580143,59.9401037 128.908052,60.4792285 128.908052,61.3863922 M130.12789,65.4212058 C128.845426,65.4212058 127.813465,65.0962788 127.031553,64.4477861 C126.24964,63.7988395 125.858457,62.8957601 125.858457,61.738094 C125.858457,60.5813355 126.237387,59.6623728 126.996156,58.9821135 C127.75447,58.3014003 128.923481,57.8675592 130.503643,57.6801361 L133.834146,57.2812382 L133.834146,56.999423 C133.834146,55.70153 133.028635,55.0525835 131.418068,55.0525835 C130.761407,55.0525835 130.225459,55.1896337 129.811131,55.4628266 C129.396804,55.7369271 129.189413,56.1240259 129.189413,56.6241232 L129.189413,56.7648039 C129.189413,56.812 129.197582,56.8746256 129.213011,56.9526807 L126.421634,56.9526807 C126.389867,56.7648039 126.374438,56.5928104 126.374438,56.4367002 C126.374438,55.6389044 126.601342,54.946846 127.054697,54.3605251 C127.508506,53.7742042 128.125686,53.3208493 128.908052,53.0000065 C129.689964,52.6796175 130.5581,52.5189692 131.512006,52.5189692 C132.512655,52.5189692 133.412104,52.6873323 134.2099,53.0231507 C135.007241,53.3598768 135.644389,53.8681426 136.121796,54.5484019 C136.598295,55.2286613 136.837452,56.1004279 136.837452,57.1637018 L136.837452,61.5974133 C136.837452,61.9572836 136.919138,62.2155008 137.08387,62.371611 C137.247695,62.528175 137.485945,62.6062301 137.799073,62.6062301 L138.150775,62.6062301 L138.150775,65.0695041 L136.790256,65.0695041 C136.039656,65.0695041 135.464681,64.9211086 135.065783,64.6238639 C134.666885,64.3266191 134.412752,63.9200065 134.303838,63.4035721 C133.865912,64.0765705 133.267339,64.580752 132.509478,64.9170243 C131.750256,65.2532966 130.956998,65.4212058 130.12789,65.4212058" id="Fill-14" fill="#FFFFFF"></path>
                        <path d="M142.209005,65.0693679 C141.239216,65.0693679 140.527643,64.8311183 140.074288,64.3537115 C139.62048,63.8772123 139.394029,63.1692707 139.394029,62.2307942 L139.394029,47.7098217 L142.396428,47.7098217 L142.396428,61.5269368 C142.396428,62.1686224 142.709556,62.4890113 143.334904,62.4890113 L143.710658,62.4890113 L143.710658,65.0693679 L142.209005,65.0693679 Z" id="Fill-16" fill="#FFFFFF"></path>
                        <path d="M149.621971,65.4682204 C147.979637,65.4682204 146.693089,65.1083501 145.762781,64.3890632 C144.832019,63.6697763 144.280642,62.6922723 144.109102,61.4565511 L147.04116,61.4565511 C147.135553,61.9888687 147.396947,62.3991118 147.827157,62.6886418 C148.256914,62.977718 148.886801,63.122483 149.715455,63.122483 C150.403883,63.122483 150.943008,63.0049465 151.334191,62.7703274 C151.725374,62.5357083 151.920512,62.168577 151.920512,61.6675721 C151.920512,61.3081556 151.799345,61.0308784 151.557465,60.8352869 C151.314224,60.6396953 150.880382,60.4872156 150.255488,60.3778476 L148.448875,60.0492901 C147.025277,59.7833582 145.9974,59.3418023 145.363883,58.7237147 C144.73082,58.106081 144.413608,57.3282528 144.413608,56.3897763 C144.413608,55.2012512 144.867417,54.2591442 145.77458,53.5630016 C146.681744,52.8673128 147.886152,52.5187877 149.386898,52.5187877 C150.497822,52.5187877 151.43176,52.703034 152.190528,53.0701653 C152.948843,53.4377504 153.531079,53.9187877 153.938146,54.5128233 C154.344759,55.1073128 154.571663,55.7408298 154.618859,56.4129206 L151.686347,56.4129206 C151.607838,55.9595656 151.389102,55.5883501 151.029686,55.2988201 C150.669815,55.0097439 150.122522,54.8649789 149.386898,54.8649789 C148.714807,54.8649789 148.206541,54.9743468 147.862554,55.1930827 C147.518113,55.4122723 147.34612,55.7172318 147.34612,56.1084149 C147.34612,56.4524019 147.467287,56.7260486 147.710075,56.9293549 C147.951955,57.1326613 148.38625,57.29694 149.011598,57.4217374 L150.818211,57.750295 C152.240901,58.0003436 153.269686,58.4387229 153.903203,59.0640713 C154.536266,59.6898736 154.853024,60.4872156 154.853024,61.4565511 C154.853024,62.5983339 154.422814,63.5526937 153.5633,64.3187229 C152.702425,65.084752 151.389102,65.4682204 149.621971,65.4682204" id="Fill-18" fill="#FFFFFF"></path>
                        <polygon id="Fill-20" fill="#FFFFFF" points="161.233076 59.7677018 161.233076 57.3280259 165.455767 57.3280259 165.455767 53.0113971 168.036123 53.0113971 168.036123 57.3280259 172.258814 57.3280259 172.258814 59.7677018 168.036123 59.7677018 168.036123 64.0843306 165.455767 64.0843306 165.455767 59.7677018"></polygon>
                        <path d="M187.084201,62.6531994 C187.991365,62.6531994 188.808674,62.426295 189.535676,61.97294 C190.263131,61.5191313 190.845368,60.850671 191.283293,59.9671053 C191.721219,59.0835397 191.940408,58.0084668 191.940408,56.7414327 C191.940408,55.459423 191.721219,54.3802658 191.283293,53.5044149 C190.845368,52.628564 190.263131,51.964188 189.535676,51.5103793 C188.808674,51.0570243 187.991365,50.8301199 187.084201,50.8301199 C186.192921,50.8301199 185.379695,51.0570243 184.644525,51.5103793 C183.909355,51.964188 183.323034,52.628564 182.885109,53.5044149 C182.447183,54.3802658 182.228447,55.459423 182.228447,56.7414327 C182.228447,58.0084668 182.447183,59.0835397 182.885109,59.9671053 C183.323034,60.850671 183.909355,61.5191313 184.644525,61.97294 C185.379695,62.426295 186.192921,62.6531994 187.084201,62.6531994 M187.084201,65.468175 C185.567118,65.468175 184.199339,65.1083047 182.979047,64.3890178 C181.759209,63.669731 180.78942,62.6572836 180.070133,61.351222 C179.350846,60.0456143 178.990976,58.5090178 178.990976,56.7414327 C178.990976,54.9743015 179.350846,53.437705 180.070133,52.1316434 C180.78942,50.8260357 181.759209,49.8135883 182.979047,49.0943015 C184.199339,48.3750146 185.567118,48.0151442 187.084201,48.0151442 C188.601284,48.0151442 189.969517,48.3750146 191.189809,49.0943015 C192.409193,49.8135883 193.378982,50.8260357 194.098723,52.1316434 C194.817556,53.437705 195.177426,54.9743015 195.177426,56.7414327 C195.177426,58.5090178 194.817556,60.0456143 194.098723,61.351222 C193.378982,62.6572836 192.409193,63.669731 191.189809,64.3890178 C189.969517,65.1083047 188.601284,65.468175 187.084201,65.468175" id="Fill-22" fill="#FFFFFF"></path>
                        <polygon id="Fill-24" fill="#FFFFFF" points="200.59613 65.0693679 195.951397 52.917731 199.047734 52.917731 202.167669 61.8318963 205.287605 52.917731 208.243715 52.917731 203.598528 65.0693679"></polygon>
                        <path d="M214.999656,55.0995527 C214.21729,55.0995527 213.541115,55.3341718 212.970677,55.80341 C212.399786,56.2721945 212.044,56.9374781 211.903319,57.7969919 L217.955767,57.7969919 C217.845945,56.9215948 217.525102,56.2531345 216.994146,55.791611 C216.462282,55.3305413 215.797452,55.0995527 214.999656,55.0995527 M215.093595,65.468175 C213.90507,65.468175 212.841342,65.2063274 211.903319,64.6821783 C210.964843,64.158483 210.221958,63.403799 209.674665,62.4185802 C209.127371,61.4333614 208.853724,60.2602658 208.853724,58.8997472 C208.853724,57.5551118 209.142801,56.4096985 209.721407,55.4630535 C210.300013,54.5168622 211.058327,53.7898606 211.997258,53.2815948 C212.93528,52.773329 213.944097,52.5187423 215.023254,52.5187423 C216.21178,52.5187423 217.25554,52.7692447 218.154989,53.2697958 C219.054438,53.7703468 219.757841,54.481919 220.266107,55.4045122 C220.774373,56.3275592 221.028506,57.4298606 221.028506,58.7118703 C221.028506,58.9156305 221.024421,59.1307358 221.01716,59.3571864 C221.008992,59.5840908 220.997193,59.7601686 220.981763,59.884966 L211.903319,59.884966 C212.012687,60.8701848 212.360759,61.617154 212.947533,62.1254198 C213.533854,62.6336856 214.249057,62.8878185 215.093595,62.8878185 C215.718943,62.8878185 216.258522,62.782081 216.711877,62.57106 C217.165686,62.3600389 217.517841,61.9180292 217.76789,61.2454846 L220.864681,61.2454846 C220.645037,62.2307034 220.238878,63.0325835 219.644389,63.6502172 C219.050353,64.2683047 218.354665,64.7252901 217.556869,65.0225348 C216.759073,65.3193258 215.938133,65.468175 215.093595,65.468175" id="Fill-26" fill="#FFFFFF"></path>
                        <path d="M222.529614,65.0693679 L222.529614,52.917731 L225.391786,52.917731 L225.391786,55.1699838 C225.70446,54.372188 226.196843,53.7740681 226.869387,53.3751702 C227.541932,52.9767261 228.292532,52.7770502 229.121186,52.7770502 L229.966178,52.7770502 L229.966178,55.5920259 L228.863423,55.5920259 C227.659015,55.5920259 226.802677,55.8933549 226.294865,56.4951053 C225.7866,57.0973096 225.532467,57.9305024 225.532467,58.9933225 L225.532467,65.0693679 L222.529614,65.0693679 Z" id="Fill-28" fill="#FFFFFF"></path>
                        <path d="M30.8299968,124.133666 L30.8299968,119.4254 C28.0073063,118.964784 25.760953,117.899241 24.0913906,116.228771 C22.4209206,114.559209 21.4416013,112.370489 21.1543404,109.663066 L28.7565446,109.663066 C28.9866256,110.930554 29.5625089,111.93801 30.4841945,112.686794 C31.4058801,113.436032 32.6152804,113.809971 34.1128493,113.809971 C35.696188,113.809971 36.8338865,113.50728 37.5254911,112.902807 C38.216188,112.29788 38.5619903,111.506438 38.5619903,110.527118 C38.5619903,108.712791 37.3235462,107.561478 34.8475656,107.071365 L29.5343728,105.948188 C27.201342,105.458982 25.3439028,104.559079 23.9616013,103.24848 C22.5792998,101.938334 21.8886029,100.073634 21.8886029,97.6548331 C21.8886029,95.120765 22.723611,93.0477666 24.3936272,91.4344765 C26.0636434,89.822094 28.2092512,88.7996629 30.8299968,88.367637 L30.8299968,83.3571345 L36.7045511,83.3571345 L36.7045511,88.4107488 C39.4110665,88.9289984 41.5212771,90.0090632 43.0329141,91.6504895 C44.5445511,93.2919157 45.41541,95.2505543 45.6459449,97.5250438 L38.5184246,97.5250438 C38.3169335,96.4604084 37.820013,95.6104246 37.0285705,94.9764538 C36.2362204,94.3433906 35.1203047,94.0261783 33.6808233,94.0261783 C32.2694781,94.0261783 31.2111961,94.2930178 30.5059773,94.8253355 C29.7998509,95.3585608 29.4476953,96.0855624 29.4476953,97.0067942 C29.4476953,97.8132123 29.7136272,98.4394684 30.2468525,98.8860162 C30.779624,99.332564 31.5492836,99.6706515 32.5581005,99.9011864 L37.8708395,101.023909 C40.6926224,101.628836 42.7733355,102.737491 44.1129789,104.349874 C45.4517147,105.963164 46.1210827,107.891851 46.1210827,110.138204 C46.1210827,112.70177 45.2497699,114.803358 43.5080519,116.444784 C41.7654263,118.086211 39.4977439,119.108188 36.7045511,119.511624 L36.7045511,124.133666 L30.8299968,124.133666 Z" id="Fill-30" fill="#FFFFFF"></path>
                        <path d="M69.1347229,170.348596 L69.1347229,114.540558 C65.9775754,116.533686 62.0344311,117.53025 57.3002982,117.53025 L52.0683371,117.53025 L52.0683371,100.463864 L57.0511572,100.463864 C62.4487585,100.463864 66.372389,98.9903468 68.8229562,96.0414976 C71.2717083,93.0949173 72.4978995,89.5851605 72.4978995,85.5154036 L72.4978995,84.0205575 L90.5608493,84.0205575 L90.5608493,170.348596 L69.1347229,170.348596 Z" id="Fill-32" fill="#FFFFFF"></path>
                        <path d="M138.519585,154.154159 C141.924058,154.154159 144.768078,152.951566 147.053005,150.541387 C149.336117,148.133932 151.058775,144.895099 152.22234,140.824888 C153.384545,136.756947 153.966781,132.22975 153.966781,127.24693 C153.966781,119.274418 152.677964,112.776784 150.104869,107.751306 C147.529504,102.727643 143.668045,100.214904 138.519585,100.214904 C133.453264,100.214904 129.612681,102.727643 126.996473,107.751306 C124.38072,112.776784 123.072843,119.274418 123.072843,127.24693 C123.072843,132.22975 123.65281,136.756947 124.81683,140.824888 C125.97858,144.895099 127.723021,148.133932 130.048791,150.541387 C132.372746,152.951566 135.197251,154.154159 138.519585,154.154159 M138.519585,172.590593 C130.712713,172.590593 124.026295,170.679151 118.463961,166.86035 C112.898904,163.041549 108.641724,157.725634 105.695144,150.915326 C102.746295,144.106833 101.272778,136.216006 101.272778,127.24693 C101.272778,118.2774 102.746295,110.388843 105.695144,103.578081 C108.641724,96.7695883 112.898904,91.4323436 118.463961,87.5708849 C124.026295,83.7089724 130.712713,81.7780162 138.519585,81.7780162 C146.324642,81.7780162 153.01106,83.7089724 158.575663,87.5708849 C164.138451,91.4323436 168.39563,96.7695883 171.34448,103.578081 C174.29106,110.388843 175.766392,118.2774 175.766392,127.24693 C175.766392,136.216006 174.29106,144.106833 171.34448,150.915326 C168.39563,157.725634 164.138451,163.041549 158.575663,166.86035 C153.01106,170.679151 146.324642,172.590593 138.519585,172.590593" id="Fill-34" fill="#FFFFFF"></path>
                        <path d="M216.625245,154.154159 C220.029718,154.154159 222.873737,152.951566 225.158665,150.541387 C227.441776,148.133932 229.164434,144.895099 230.328,140.824888 C231.490204,136.756947 232.072441,132.22975 232.072441,127.24693 C232.072441,119.274418 230.783624,112.776784 228.210528,107.751306 C225.635164,102.727643 221.773705,100.214904 216.625245,100.214904 C211.558924,100.214904 207.71834,102.727643 205.102133,107.751306 C202.486379,112.776784 201.178502,119.274418 201.178502,127.24693 C201.178502,132.22975 201.75847,136.756947 202.922489,140.824888 C204.08424,144.895099 205.828681,148.133932 208.154451,150.541387 C210.478405,152.951566 213.302911,154.154159 216.625245,154.154159 M216.625245,172.590593 C208.818373,172.590593 202.131955,170.679151 196.569621,166.86035 C191.004564,163.041549 186.747384,157.725634 183.800804,150.915326 C180.851955,144.106833 179.378438,136.216006 179.378438,127.24693 C179.378438,118.2774 180.851955,110.388843 183.800804,103.578081 C186.747384,96.7695883 191.004564,91.4323436 196.569621,87.5708849 C202.131955,83.7089724 208.818373,81.7780162 216.625245,81.7780162 C224.430301,81.7780162 231.11672,83.7089724 236.681323,87.5708849 C242.24411,91.4323436 246.50129,96.7695883 249.450139,103.578081 C252.39672,110.388843 253.872052,118.2774 253.872052,127.24693 C253.872052,136.216006 252.39672,144.106833 249.450139,150.915326 C246.50129,157.725634 242.24411,163.041549 236.681323,166.86035 C231.11672,170.679151 224.430301,172.590593 216.625245,172.590593" id="Fill-36" fill="#FFFFFF"></path>
                        <polygon id="Fill-38" fill="#FFFFFF" points="53.8302042 209.722677 53.8302042 185.825562 69.548778 185.825562 69.548778 189.797297 58.4077731 189.797297 58.4077731 195.586535 68.7405446 195.586535 68.7405446 199.423488 58.4077731 199.423488 58.4077731 205.750943 69.548778 205.750943 69.548778 209.722677"></polygon>
                        <polygon id="Fill-40" fill="#FFFFFF" points="70.961893 209.722677 77.1545673 200.837102 71.2645835 192.287799 76.0776791 192.287799 79.9822496 198.178237 83.8863663 192.287799 88.3296078 192.287799 82.4055883 200.904266 88.5651345 209.722677 83.7520389 209.722677 79.5783598 203.428804 75.4382626 209.722677"></polygon>
                        <path d="M96.6424311,209.722677 C95.0944895,209.722677 93.8601297,209.330587 92.9402593,208.54459 C92.0194814,207.759501 91.5602269,206.480214 91.5602269,204.707637 L91.5602269,195.821608 L88.9685251,195.821608 L88.9685251,192.287799 L89.9446677,192.287799 C90.7524473,192.287799 91.296564,192.130781 91.5770178,191.816746 C91.8574716,191.50271 91.9981524,190.953147 91.9981524,190.167151 L91.9981524,187.575449 L95.8686872,187.575449 L95.8686872,192.287799 L99.7728039,192.287799 L99.7728039,195.821608 L95.8686872,195.821608 L95.8686872,203.765076 C95.8686872,204.663164 96.0815235,205.263099 96.5081037,205.565789 C96.9342301,205.868934 97.5178282,206.020506 98.2584441,206.020506 L99.7728039,206.020506 L99.7728039,209.722677 L96.6424311,209.722677 Z" id="Fill-42" fill="#FFFFFF"></path>
                        <path d="M101.691053,209.722677 L101.691053,192.287799 L105.797569,192.287799 L105.797569,195.518917 C106.245932,194.374865 106.952966,193.516259 107.917763,192.944006 C108.882561,192.372207 109.959449,192.085854 111.148882,192.085854 L112.361005,192.085854 L112.361005,196.124752 L110.778574,196.124752 C109.050924,196.124752 107.82201,196.556778 107.093193,197.42083 C106.363922,198.284882 105.99906,199.47976 105.99906,201.005011 L105.99906,209.722677 L101.691053,209.722677 Z" id="Fill-44" fill="#FFFFFF"></path>
                        <path d="M117.544227,204.438301 C117.544227,205.089517 117.784746,205.610943 118.267598,206.003488 C118.749997,206.396032 119.44024,206.592532 120.33742,206.592532 C121.594016,206.592532 122.620985,206.234023 123.41742,205.51519 C124.2134,204.797718 124.612298,203.81023 124.612298,202.553634 L124.612298,201.577491 L120.438619,202.116162 C118.508571,202.363034 117.544227,203.137232 117.544227,204.438301 M119.294113,210.22754 C117.454373,210.22754 115.973141,209.761478 114.851326,208.830716 C113.729057,207.899955 113.168149,206.603877 113.168149,204.942937 C113.168149,203.282904 113.712266,201.96459 114.800953,200.987994 C115.889186,200.012305 117.56601,199.389679 119.832784,199.120117 L124.612298,198.548318 L124.612298,198.144428 C124.612298,196.281997 123.455994,195.350781 121.145653,195.350781 C120.202639,195.350781 119.43434,195.54728 118.839851,195.939371 C118.244908,196.332823 117.948117,196.887831 117.948117,197.605757 L117.948117,197.807702 C117.948117,197.874865 117.959008,197.96472 117.981699,198.07681 L113.976382,198.07681 C113.931002,197.807702 113.908765,197.561284 113.908765,197.336648 C113.908765,196.192143 114.234146,195.199209 114.885361,194.357848 C115.535669,193.516486 116.421504,192.865724 117.544227,192.405562 C118.666042,191.946308 119.911293,191.715773 121.279981,191.715773 C122.715831,191.715773 124.006464,191.956746 125.150969,192.439598 C126.295021,192.921997 127.209446,193.650814 127.894243,194.626956 C128.577679,195.603099 128.920305,196.85425 128.920305,198.379955 L128.920305,204.741446 C128.920305,205.25788 129.038295,205.627734 129.273822,205.851916 C129.509348,206.076551 129.851066,206.188188 130.300337,206.188188 L130.805426,206.188188 L130.805426,209.722904 L128.853141,209.722904 C127.776253,209.722904 126.951229,209.509614 126.379429,209.083034 C125.807177,208.657361 125.441861,208.073763 125.28575,207.333147 C124.657225,208.297945 123.798619,209.02177 122.71084,209.503715 C121.621699,209.986567 120.483546,210.22754 119.294113,210.22754" id="Fill-46" fill="#FFFFFF"></path>
                        <path d="M142.484648,199.254943 L137.604389,199.254943 L137.604389,205.885543 L142.51823,205.885543 C144.044389,205.885543 145.160305,205.62188 145.867339,205.094554 C146.574373,204.567682 146.927436,203.743112 146.927436,202.620843 C146.927436,200.377666 145.446658,199.254943 142.484648,199.254943 L142.484648,199.254943 Z M142.148376,189.662334 L137.604389,189.662334 L137.604389,195.41799 L142.350321,195.41799 C143.606917,195.41799 144.554924,195.188363 145.19434,194.727747 C145.833757,194.268493 146.153692,193.521977 146.153692,192.490016 C146.153692,190.604895 144.818587,189.662334 142.148376,189.662334 L142.148376,189.662334 Z M133.094438,209.722496 L133.094438,185.825381 L143.258846,185.825381 C144.807241,185.825381 146.142347,186.094489 147.264162,186.633614 C148.385977,187.171831 149.244583,187.907002 149.839073,188.837763 C150.433562,189.769433 150.731261,190.82953 150.731261,192.018509 C150.731261,193.073614 150.461699,194.088331 149.923481,195.064927 C149.38481,196.040616 148.610613,196.764441 147.600434,197.235494 C148.879721,197.707002 149.86131,198.4753 150.546107,199.541297 C151.229997,200.60684 151.572169,201.711864 151.572169,202.856823 C151.572169,204.921199 150.887825,206.581686 149.519138,207.837828 C148.150451,209.094878 146.187274,209.722496 143.629154,209.722496 L133.094438,209.722496 Z" id="Fill-48" fill="#FFFFFF"></path>
                        <path d="M160.458878,210.29484 C159.292136,210.29484 158.198003,210.047514 157.177387,209.554224 C156.155864,209.060934 155.325848,208.298081 154.686431,207.265666 C154.047015,206.234159 153.727079,204.92129 153.727079,203.327514 L153.727079,192.287708 L158.03554,192.287708 L158.03554,202.755715 C158.03554,203.922457 158.343676,204.854126 158.960856,205.548908 C159.578036,206.244596 160.413498,206.592668 161.468603,206.592668 C162.702055,206.592668 163.689997,206.211015 164.430613,205.448162 C165.171229,204.685763 165.541083,203.697822 165.541083,202.486152 L165.541083,192.287708 L169.849089,192.287708 L169.849089,204.741582 C169.849089,205.257562 169.967079,205.62787 170.20306,205.852052 C170.438587,206.076687 170.780305,206.188324 171.229122,206.188324 L171.734665,206.188324 L171.734665,209.722587 L169.782379,209.722587 C168.705037,209.722587 167.880467,209.50975 167.308214,209.08317 C166.735961,208.657498 166.371099,208.073446 166.214535,207.333284 C165.6087,208.298081 164.789122,209.032797 163.757614,209.537433 C162.724746,210.042522 161.625167,210.29484 160.458878,210.29484" id="Fill-50" fill="#FFFFFF"></path>
                        <path d="M181.528175,210.29484 C179.822762,210.29484 178.297057,209.924985 176.95106,209.18437 C175.604609,208.443754 174.544058,207.378211 173.769861,205.986833 C172.996117,204.595455 172.609018,202.935423 172.609018,201.004921 C172.609018,199.075326 172.996117,197.415293 173.769861,196.023916 C174.544058,194.632538 175.604609,193.566995 176.95106,192.826379 C178.297057,192.085763 179.822762,191.715909 181.528175,191.715909 C183.727332,191.715909 185.58931,192.316298 187.115922,193.516169 C188.641173,194.716947 189.583734,196.450496 189.942697,198.716363 L185.567073,198.716363 C185.275728,197.595002 184.78153,196.764532 184.086749,196.225861 C183.390606,195.687643 182.549245,195.418081 181.561757,195.418081 C180.260233,195.418081 179.172454,195.872344 178.297057,196.781323 C177.422113,197.690301 176.984188,199.09847 176.984188,201.004921 C176.984188,202.912733 177.422113,204.320447 178.297057,205.229426 C179.172454,206.138405 180.260233,206.592668 181.561757,206.592668 C182.571935,206.592668 183.447332,206.334451 184.187041,205.81847 C184.927656,205.302489 185.420947,204.449783 185.668272,203.26035 L190.043896,203.26035 C189.841951,204.763818 189.347754,206.037206 188.563118,207.080512 C187.777575,208.123818 186.778742,208.920707 185.567073,209.470269 C184.355404,210.019831 183.009407,210.29484 181.528175,210.29484" id="Fill-52" fill="#FFFFFF"></path>
                        <polygon id="Fill-54" fill="#FFFFFF" points="192.029582 209.722677 192.029582 184.815384 196.337588 184.815384 196.337588 198.918399 203.304914 192.287799 208.656681 192.287799 201.554574 199.120344 209.026989 209.722677 203.911203 209.722677 198.289874 201.644428 196.337588 203.563585 196.337588 209.722677"></polygon>
                        <path d="M217.071929,210.29484 C214.716207,210.29484 212.870113,209.778405 211.535462,208.746898 C210.199903,207.714483 209.408914,206.312214 209.162496,204.539183 L213.369757,204.539183 C213.504538,205.302489 213.879838,205.891533 214.497018,206.306314 C215.114198,206.722003 216.017277,206.92894 217.20671,206.92894 C218.194198,206.92894 218.968395,206.761031 219.529303,206.424305 C220.089757,206.087579 220.370665,205.560707 220.370665,204.842327 C220.370665,204.326347 220.196856,203.928357 219.848784,203.647449 C219.501167,203.366995 218.878088,203.148259 217.980908,202.990788 L215.389206,202.519734 C213.347066,202.138535 211.872188,201.505018 210.963209,200.618276 C210.05423,199.731987 209.599968,198.615618 209.599968,197.269167 C209.599968,195.564207 210.250729,194.212311 211.552253,193.213024 C212.853323,192.215099 214.581426,191.715909 216.735656,191.715909 C218.328525,191.715909 219.669076,191.980026 220.757763,192.506898 C221.845997,193.034224 222.681459,193.724013 223.265057,194.576266 C223.848655,195.429426 224.174036,196.338405 224.241199,197.302749 L220.033938,197.302749 C219.921394,196.652441 219.607812,196.119669 219.091378,195.704434 C218.575397,195.289199 217.789854,195.081809 216.735656,195.081809 C215.770405,195.081809 215.041135,195.238373 214.547844,195.552862 C214.0541,195.867352 213.807682,196.304823 213.807682,196.865277 C213.807682,197.359021 213.980583,197.752019 214.329109,198.043365 C214.676726,198.335164 215.299352,198.57069 216.196985,198.750399 L218.788687,199.221452 C220.830373,199.580869 222.305705,200.20894 223.214684,201.10612 C224.123663,202.003754 224.577925,203.148259 224.577925,204.539183 C224.577925,206.177887 223.960746,207.54612 222.72684,208.645699 C221.49248,209.744823 219.607812,210.29484 217.071929,210.29484" id="Fill-56" fill="#FFFFFF"></path>
                        <path d="M228.131293,189.954088 L227.805912,189.954088 L227.805912,190.616194 L228.131293,190.616194 C228.393141,190.616194 228.523838,190.504104 228.523838,190.279468 C228.523838,190.062548 228.393141,189.954088 228.131293,189.954088 L228.131293,189.954088 Z M227.222314,191.838755 L227.222314,189.483034 L228.209802,189.483034 C228.493887,189.483034 228.712622,189.555643 228.86601,189.701316 C229.019397,189.847896 229.096091,190.036681 229.096091,190.268123 C229.096091,190.567637 228.965394,190.788188 228.703546,190.93023 L229.106982,191.838755 L228.467566,191.838755 L228.164875,191.087248 L227.805912,191.087248 L227.805912,191.838755 L227.222314,191.838755 Z M228.086366,192.433699 C228.407663,192.433699 228.701731,192.366081 228.967209,192.231754 C229.232687,192.096972 229.445524,191.896843 229.606626,191.631365 C229.767274,191.365887 229.847598,191.050036 229.847598,190.683358 C229.847598,190.30942 229.767274,189.993569 229.606626,189.735352 C229.445524,189.477135 229.232687,189.279274 228.967209,189.140862 C228.701731,189.002451 228.407663,188.933018 228.086366,188.933018 C227.764616,188.933018 227.469186,189.002451 227.200078,189.140862 C226.930515,189.279274 226.715864,189.477135 226.554762,189.735352 C226.394113,189.993569 226.313789,190.30942 226.313789,190.683358 C226.313789,191.050036 226.394113,191.364071 226.554762,191.625919 C226.715864,191.887767 226.930515,192.085627 227.200078,192.220408 C227.469186,192.35519 227.764616,192.425984 228.086366,192.433699 L228.086366,192.433699 Z M228.086366,192.971916 C227.652525,192.971916 227.257712,192.878431 226.902833,192.691462 C226.547501,192.504947 226.265232,192.239015 226.055572,191.895028 C225.846366,191.551494 225.741536,191.147151 225.741536,190.683358 C225.741536,190.219566 225.846366,189.815676 226.055572,189.471689 C226.265232,189.127702 226.547501,188.862224 226.902833,188.675254 C227.257712,188.488285 227.652525,188.394347 228.086366,188.394347 C228.527468,188.394347 228.924097,188.488285 229.275345,188.675254 C229.627047,188.862224 229.907501,189.127702 230.11716,189.471689 C230.326366,189.815676 230.431196,190.219566 230.431196,190.683358 C230.431196,191.147151 230.326366,191.551494 230.11716,191.895028 C229.907501,192.239015 229.627047,192.504947 229.275345,192.691462 C228.924097,192.878431 228.527468,192.971916 228.086366,192.971916 L228.086366,192.971916 Z" id="Fill-58" fill="#FFFFFF"></path>
                        <path d="M84.7046742,221.541673 L79.9591961,221.541673 L79.9591961,229.148415 L84.7046742,229.148415 C86.0511248,229.148415 87.1225673,228.800797 87.9190016,228.105109 C88.715436,227.409874 89.1143339,226.478204 89.1143339,225.311462 C89.1143339,224.099793 88.7213355,223.168577 87.9357925,222.517361 C87.1507034,221.867053 86.0733614,221.541673 84.7046742,221.541673 L84.7046742,221.541673 Z M75.3816272,241.467053 L75.3816272,217.569938 L85.2433452,217.569938 C86.9936856,217.569938 88.5025997,217.895319 89.7705413,218.545627 C91.0380292,219.197297 92.0196175,220.094476 92.7153063,221.238528 C93.4109951,222.383034 93.7586126,223.707248 93.7586126,225.210263 C93.7586126,226.691494 93.3492771,228.043391 92.5301524,229.265951 C91.7110276,230.48942 90.5610762,231.392499 89.080752,231.975643 L94.8359546,241.467053 L89.7537504,241.467053 L84.8730373,232.985368 L79.9591961,232.985368 L79.9591961,241.467053 L75.3816272,241.467053 Z" id="Fill-60" fill="#FFFFFF"></path>
                        <path d="M104.529128,227.162412 C103.406405,227.162412 102.436616,227.499138 101.617491,228.17259 C100.797912,228.845135 100.287831,229.799494 100.085887,231.032947 L108.769971,231.032947 C108.612499,229.776804 108.152337,228.817452 107.389938,228.155345 C106.626632,227.493692 105.67318,227.162412 104.529128,227.162412 M104.663455,242.03917 C102.958042,242.03917 101.432337,241.663417 100.085887,240.911909 C98.7398898,240.160402 97.673893,239.077614 96.8883501,237.664 C96.1032609,236.249932 95.7102626,234.567209 95.7102626,232.615378 C95.7102626,230.685783 96.1254976,229.042088 96.9559676,227.683838 C97.7859838,226.326496 98.8742172,225.28319 100.220668,224.553919 C101.567118,223.825102 103.014314,223.46024 104.56271,223.46024 C106.267669,223.46024 107.765692,223.819203 109.056324,224.537128 C110.346049,225.255507 111.355773,226.276577 112.085044,227.599883 C112.814314,228.924097 113.179177,230.506075 113.179177,232.345815 C113.179177,232.637614 113.173277,232.946204 113.161932,233.271585 C113.150587,233.596966 113.133796,233.849284 113.111559,234.028538 L100.085887,234.028538 C100.242904,235.442152 100.742094,236.514049 101.583909,237.243319 C102.425271,237.972136 103.451786,238.336998 104.663455,238.336998 C105.560635,238.336998 106.334833,238.185426 106.986049,237.882736 C107.63681,237.579592 108.141446,236.946075 108.500408,235.980823 L112.94365,235.980823 C112.62916,237.394438 112.045562,238.544843 111.19331,239.430677 C110.340603,240.31742 109.34177,240.974081 108.197718,241.399754 C107.053212,241.82588 105.875579,242.03917 104.663455,242.03917" id="Fill-62" fill="#FFFFFF"></path>
                        <polygon id="Fill-64" fill="#FFFFFF" points="119.540713 241.467144 113.952966 224.032266 118.396207 224.032266 121.997634 236.519721 125.497861 224.032266 129.536759 224.032266 133.071021 236.485686 136.638865 224.032266 140.879708 224.032266 135.292415 241.467144 130.984408 241.467144 127.41611 229.080888 123.84872 241.467144"></polygon>
                        <path d="M146.096512,236.182768 C146.096512,236.833984 146.337031,237.35541 146.819883,237.747955 C147.302282,238.140499 147.992525,238.336998 148.889705,238.336998 C150.146301,238.336998 151.173271,237.978489 151.969705,237.259656 C152.765686,236.542185 153.164583,235.554697 153.164583,234.2981 L153.164583,233.321958 L148.990904,233.860629 C147.060856,234.107501 146.096512,234.881699 146.096512,236.182768 M147.846399,241.972006 C146.006658,241.972006 144.525426,241.505945 143.403611,240.575183 C142.281342,239.644421 141.720434,238.348344 141.720434,236.687404 C141.720434,235.027371 142.264551,233.709057 143.353238,232.73246 C144.441472,231.756771 146.118295,231.134146 148.38507,230.864583 L153.164583,230.292784 L153.164583,229.888895 C153.164583,228.026464 152.008279,227.095248 149.697938,227.095248 C148.754924,227.095248 147.986626,227.291747 147.392136,227.683838 C146.797193,228.07729 146.500402,228.632298 146.500402,229.350224 L146.500402,229.552169 C146.500402,229.619332 146.511293,229.709186 146.533984,229.821277 L142.528668,229.821277 C142.483287,229.552169 142.46105,229.30575 142.46105,229.081115 C142.46105,227.936609 142.786431,226.943676 143.437647,226.102314 C144.087955,225.260953 144.973789,224.610191 146.096512,224.150029 C147.218327,223.690775 148.463579,223.46024 149.832266,223.46024 C151.268117,223.46024 152.558749,223.701212 153.703254,224.184065 C154.847306,224.666464 155.761731,225.39528 156.446528,226.371423 C157.129964,227.347566 157.47259,228.598716 157.47259,230.124421 L157.47259,236.485912 C157.47259,237.002347 157.59058,237.372201 157.826107,237.596382 C158.061634,237.821018 158.403352,237.932655 158.852622,237.932655 L159.357712,237.932655 L159.357712,241.467371 L157.405426,241.467371 C156.328538,241.467371 155.503514,241.254081 154.931715,240.827501 C154.359462,240.401828 153.994146,239.81823 153.838036,239.077614 C153.209511,240.042412 152.350904,240.766237 151.263125,241.248182 C150.173984,241.731034 149.035831,241.972006 147.846399,241.972006" id="Fill-66" fill="#FFFFFF"></path>
                        <path d="M160.94105,241.467144 L160.94105,224.032266 L165.047566,224.032266 L165.047566,227.263384 C165.495929,226.119332 166.202963,225.260726 167.16776,224.688473 C168.132558,224.116674 169.209446,223.830321 170.398878,223.830321 L171.611002,223.830321 L171.611002,227.869219 L170.028571,227.869219 C168.300921,227.869219 167.072006,228.301245 166.34319,229.165297 C165.613919,230.029348 165.249057,231.224227 165.249057,232.749478 L165.249057,241.467144 L160.94105,241.467144 Z" id="Fill-68" fill="#FFFFFF"></path>
                        <path d="M180.764596,238.336998 C181.998502,238.336998 183.064499,237.882736 183.962587,236.973757 C184.859313,236.064778 185.308583,234.657517 185.308583,232.749251 C185.308583,230.82011 184.859313,229.406496 183.962587,228.508862 C183.064499,227.611682 181.998502,227.162412 180.764596,227.162412 C179.530237,227.162412 178.464694,227.611682 177.56706,228.508862 C176.66988,229.406496 176.220609,230.82011 176.220609,232.749251 C176.220609,234.657517 176.66988,236.064778 177.56706,236.973757 C178.464694,237.882736 179.530237,238.336998 180.764596,238.336998 M179.620545,242.03917 C177.982295,242.03917 176.579572,241.646626 175.413284,240.861083 C174.246088,240.075994 173.360253,238.988214 172.754418,237.596382 C172.148583,236.205459 171.845439,234.5899 171.845439,232.749251 C171.845439,230.887274 172.153575,229.260823 172.771209,227.869446 C173.387935,226.478068 174.27377,225.39528 175.430075,224.621083 C176.585472,223.846885 177.959605,223.46024 179.552927,223.46024 C180.719216,223.46024 181.808357,223.712104 182.817627,224.217647 C183.827806,224.722282 184.635131,225.446107 185.24142,226.388214 L185.24142,216.560078 L189.549426,216.560078 L189.549426,236.485912 C189.549426,237.002347 189.667417,237.372201 189.902943,237.596382 C190.13847,237.821018 190.480188,237.932655 190.929459,237.932655 L191.434548,237.932655 L191.434548,241.466917 L189.482263,241.466917 C188.31552,241.466917 187.446023,241.225945 186.87377,240.743546 C186.301517,240.261147 185.970237,239.60494 185.880836,238.77447 C185.252311,239.851358 184.366476,240.665037 183.221971,241.2146 C182.077465,241.764162 180.876687,242.03917 179.620545,242.03917" id="Fill-70" fill="#FFFFFF"></path>
                        <path d="M199.849387,242.039261 C197.493666,242.039261 195.647572,241.522827 194.312921,240.491319 C192.977361,239.458904 192.186373,238.056635 191.939955,236.283605 L196.147216,236.283605 C196.281997,237.046911 196.657297,237.635955 197.274476,238.050736 C197.891656,238.466425 198.794736,238.673361 199.984169,238.673361 C200.971656,238.673361 201.745854,238.505452 202.306762,238.168726 C202.867216,237.832 203.148123,237.305128 203.148123,236.586749 C203.148123,236.070768 202.974314,235.672778 202.626243,235.39187 C202.278626,235.111417 201.655546,234.892681 200.758366,234.735209 L198.166665,234.264156 C196.124525,233.882956 194.649647,233.249439 193.740668,232.362697 C192.831689,231.476408 192.377426,230.360039 192.377426,229.013588 C192.377426,227.308629 193.028188,225.956733 194.329712,224.957446 C195.630781,223.95952 197.358885,223.460331 199.513115,223.460331 C201.105984,223.460331 202.446535,223.724447 203.535222,224.251319 C204.623455,224.778645 205.458917,225.468434 206.042515,226.320687 C206.626113,227.173848 206.951494,228.082827 207.018658,229.04717 L202.811397,229.04717 C202.698853,228.396862 202.385271,227.864091 201.868836,227.448856 C201.352856,227.033621 200.567313,226.82623 199.513115,226.82623 C198.547864,226.82623 197.818593,226.982794 197.325303,227.297284 C196.831559,227.611773 196.585141,228.049245 196.585141,228.609699 C196.585141,229.103442 196.758042,229.496441 197.106567,229.787786 C197.454185,230.079585 198.07681,230.315112 198.974444,230.49482 L201.566146,230.965874 C203.607831,231.32529 205.083164,231.953361 205.992143,232.850541 C206.901122,233.748175 207.355384,234.892681 207.355384,236.283605 C207.355384,237.922308 206.738204,239.290541 205.504298,240.39012 C204.269938,241.489245 202.385271,242.039261 199.849387,242.039261" id="Fill-72" fill="#FFFFFF"></path>
                    </g>
                </g>
            </g>
        </g>
    </g>
</svg>